<?xml version="1.0" encoding="UTF-8" standalone="no"?>
<svg
   width="183.31599pt"
   height="29.383165pt"
   viewBox="0 0 183.31599 29.383165"
   version="1.1"
   id="svg160"
   xmlns="http://www.w3.org/2000/svg"
   xmlns:svg="http://www.w3.org/2000/svg">
  <defs
     id="defs164" />
  <g
     fill="#ffffff"
     id="g158"
     transform="translate(-9.7930014,-9.793)">
    <path
       d="m 31.184,10.285 c -5.91,-0.004 -12.075,1.328 -18.301,3.055 -0.79,0.16 -1.563,0.676 -1.969,1.316 -0.375,0.602 -0.512,1.207 -0.629,1.844 -0.605,3.387 -0.531,6.715 -0.406,10.398 0.027,0.844 0.156,1.848 0.547,2.454 0.414,0.613 1.117,1.003 1.96,1.132 1.083,0.164 2.16,0.29 3.239,0.403 l -0.238,6.656 c -0.04,0.527 0.222,0.969 0.543,1.223 0.289,0.218 0.61,0.316 0.937,0.34 0.656,0.05 1.43,-0.235 1.813,-0.961 1.68,-3.235 2.734,-4.66 4.832,-6.81 5.48,0.138 10.261,-0.167 15.672,-0.57 1.914,-0.046 3.23,-1.613 3.578,-2.863 1.035,-3.238 1.199,-7.234 1.308,-11.277 0.047,-1.602 -0.508,-3.172 -1.492,-4.004 -0.937,-0.758 -2.066,-1.031 -3.105,-1.312 -2.883,-0.653 -5.766,-1.004 -8.29,-1.024 z m 7.875,2.531 c 1.039,0.282 1.957,0.555 2.53,1.024 0.966,1.023 0.934,1.707 0.923,2.812 -0.11,3.918 -0.297,7.723 -1.184,10.606 -0.383,1.074 -1.043,1.84 -2.3,1.953 -5.516,0.41 -10.301,0.727 -15.844,0.566 a 0.792,0.792 0 0 0 -0.582,0.23 c -2.329,2.352 -3.52,3.99 -5.297,7.407 -0.04,0.078 -0.13,0.125 -0.242,0.133 -0.07,-0.004 -0.102,-0.063 -0.106,-0.113 l 0.238,-7.22 a 0.804,0.804 0 0 0 -0.695,-0.8 73.176,73.176 0 0 1 -3.871,-0.477 c -0.555,-0.082 -0.758,-0.234 -0.91,-0.46 -0.266,-0.633 -0.262,-1.024 -0.281,-1.63 -0.126,-3.656 -0.184,-6.847 0.374,-10.023 0.055,-0.472 0.231,-0.953 0.418,-1.351 0.31,-0.485 0.782,-0.555 1.258,-0.688 6.086,-1.68 12.04,-2.937 17.649,-2.941 2.75,0.097 5.633,0.375 7.922,0.972 z m -21.024,6.192 c -0.84,1.004 -0.758,2.367 -0.11,3.281 0.34,0.48 0.868,0.863 1.509,0.95 0.836,0.07 1.367,-0.27 1.937,-0.657 1.035,-0.898 1.14,-2.469 0.352,-3.605 a 2.184,2.184 0 0 0 -1.696,-0.946 c -0.898,0.008 -1.507,0.407 -1.992,0.977 z m 9.07,-0.82 c -0.835,0.027 -1.511,0.605 -1.925,1.23 -0.47,0.71 -0.746,1.605 -0.364,2.484 0.735,1.684 3.274,1.664 4.286,-0.05 0.464,-0.79 0.347,-1.688 0,-2.336 -0.348,-0.653 -0.872,-1.184 -1.633,-1.305 a 1.934,1.934 0 0 0 -0.364,-0.023 z m 7.364,0.156 a 2.895,2.895 0 0 0 -0.778,0.086 c -1.004,0.27 -1.859,1.304 -1.73,2.629 0.066,0.668 0.371,1.32 0.926,1.765 0.554,0.45 1.355,0.649 2.203,0.477 0.972,-0.2 1.578,-0.985 1.777,-1.742 0.203,-0.758 0.153,-1.528 -0.316,-2.153 A 2.655,2.655 0 0 0 34.469,18.344 Z M 19.96,19.586 c 0.184,0.004 0.332,0.062 0.484,0.281 0.34,0.492 0.246,1.235 -0.097,1.535 -0.34,0.297 -0.555,0.325 -0.707,0.305 -0.149,-0.023 -0.301,-0.125 -0.438,-0.316 -0.258,-0.368 -0.336,-0.961 0.008,-1.387 0.18,-0.242 0.516,-0.395 0.75,-0.418 z m 7.254,0.172 c 0.027,0.004 0.355,0.195 0.512,0.488 0.156,0.293 0.183,0.563 0.035,0.813 -0.442,0.75 -1.38,0.546 -1.52,0.222 -0.055,-0.125 -0.015,-0.625 0.242,-1.011 0.258,-0.391 0.578,-0.536 0.73,-0.512 z m 8.082,0.57 c 0.047,0.067 0.164,0.492 0.074,0.828 -0.09,0.34 -0.238,0.547 -0.598,0.621 -0.46,0.098 -0.718,0 -0.914,-0.156 -0.191,-0.156 -0.324,-0.422 -0.351,-0.707 -0.07,-0.703 0.183,-0.867 0.586,-0.973 0.465,-0.117 0.992,0.086 1.203,0.387 z m 0,0 m 18.571,-6.894 a 0.892,0.892 0 0 1 0.219,-0.536 0.665,0.665 0 0 1 0.535,-0.238 h 5.223 c 0.176,0 0.36,0.074 0.547,0.219 a 0.68,0.68 0 0 1 0.28,0.555 v 8.336 h 8.74 v -8.336 a 0.768,0.768 0 0 1 0.793,-0.773 h 5.151 c 0.235,0 0.438,0.058 0.614,0.175 0.176,0.117 0.265,0.305 0.265,0.562 V 38 c 0,0.258 -0.078,0.45 -0.23,0.578 -0.152,0.129 -0.352,0.195 -0.598,0.195 H 70.203 A 0.845,0.845 0 0 1 69.629,38.578 C 69.484,38.449 69.41,38.258 69.41,38 V 28.012 H 60.672 V 38 c 0,0.246 -0.078,0.438 -0.238,0.57 -0.157,0.137 -0.371,0.203 -0.641,0.203 h -5.172 c -0.492,0 -0.742,-0.23 -0.754,-0.687 z m 48.11,25.039 a 1.1,1.1 0 0 1 -0.485,0.246 2.422,2.422 0 0 1 -0.484,0.054 h -2.656 c -0.211,0 -0.391,-0.039 -0.543,-0.113 A 1.197,1.197 0 0 1 97.422,38.352 1.842,1.842 0 0 1 97.156,37.91 3.71,3.71 0 0 1 96.98,37.402 l -0.543,-2.25 c -0.175,0.364 -0.433,0.774 -0.765,1.239 a 6.65,6.65 0 0 1 -1.274,1.3 7.077,7.077 0 0 1 -1.847,1.02 c -0.715,0.277 -1.535,0.414 -2.461,0.414 -1.336,0 -2.55,-0.258 -3.64,-0.773 a 8.372,8.372 0 0 1 -2.79,-2.11 c -0.765,-0.89 -1.36,-1.933 -1.781,-3.12 a 11.327,11.327 0 0 1 -0.633,-3.81 V 17.797 c 0,-0.445 0.094,-0.785 0.29,-1.012 0.19,-0.23 0.5,-0.344 0.921,-0.344 h 4.063 c 0.503,0 0.847,0.086 1.039,0.254 0.187,0.172 0.28,0.5 0.28,0.996 v 11.446 c 0,0.504 0.114,0.98 0.34,1.433 a 4.282,4.282 0 0 0 2.18,2.012 c 0.477,0.2 0.961,0.3 1.454,0.3 0.421,0 0.859,-0.1 1.308,-0.3 0.453,-0.2 0.867,-0.465 1.25,-0.797 0.379,-0.336 0.695,-0.73 0.942,-1.18 0.246,-0.453 0.367,-0.93 0.367,-1.433 v -11.43 c 0,-0.199 0.039,-0.398 0.113,-0.597 a 0.963,0.963 0 0 1 0.344,-0.457 c 0.152,-0.094 0.297,-0.16 0.43,-0.196 0.136,-0.035 0.292,-0.05 0.468,-0.05 h 3.973 c 0.504,0 0.867,0.12 1.09,0.367 0.222,0.246 0.336,0.578 0.336,0.988 v 19.676 c 0,0.222 -0.051,0.425 -0.153,0.613 a 1.091,1.091 0 0 1 -0.41,0.441 z m 20.414,-2.426 c -0.317,0.316 -0.668,0.656 -1.047,1.02 -0.383,0.363 -0.801,0.703 -1.258,1.019 -0.457,0.316 -0.95,0.578 -1.477,0.785 a 4.714,4.714 0 0 1 -1.707,0.305 c -1.593,0 -3.062,-0.297 -4.402,-0.895 a 10.537,10.537 0 0 1 -3.465,-2.453 c -0.969,-1.039 -1.722,-2.262 -2.27,-3.668 -0.542,-1.406 -0.816,-2.918 -0.816,-4.535 0,-1.629 0.274,-3.145 0.817,-4.547 0.546,-1.398 1.3,-2.617 2.27,-3.656 a 10.403,10.403 0 0 1 3.464,-2.445 c 1.34,-0.59 2.809,-0.887 4.402,-0.887 a 5.32,5.32 0 0 1 1.77,0.281 6.49,6.49 0 0 1 1.457,0.719 c 0.441,0.297 0.844,0.625 1.215,0.996 0.367,0.367 0.719,0.73 1.047,1.082 v -8.04 c 0,-0.374 0.113,-0.69 0.34,-0.948 0.23,-0.258 0.574,-0.387 1.03,-0.387 h 3.958 c 0.152,0 0.312,0.035 0.48,0.098 0.172,0.066 0.328,0.156 0.469,0.273 0.14,0.117 0.254,0.258 0.34,0.422 0.09,0.164 0.133,0.344 0.133,0.543 v 26.289 c 0,0.902 -0.473,1.355 -1.422,1.355 h -3.45 c -0.234,0 -0.414,-0.03 -0.542,-0.09 a 0.826,0.826 0 0 1 -0.325,-0.253 1.64,1.64 0 0 1 -0.238,-0.422 c -0.07,-0.168 -0.16,-0.367 -0.266,-0.59 z m -10.114,-8.422 c 0,0.773 0.121,1.496 0.364,2.172 a 5.142,5.142 0 0 0 1.027,1.75 c 0.445,0.492 0.98,0.883 1.61,1.168 0.624,0.289 1.32,0.43 2.081,0.43 0.75,0 1.457,-0.133 2.121,-0.403 0.66,-0.27 1.239,-0.64 1.73,-1.117 a 5.616,5.616 0 0 0 1.188,-1.68 5.541,5.541 0 0 0 0.5,-2.074 v -0.246 c 0,-0.75 -0.14,-1.465 -0.421,-2.145 a 5.712,5.712 0 0 0 -1.168,-1.793 5.555,5.555 0 0 0 -1.758,-1.222 5.326,5.326 0 0 0 -2.192,-0.45 c -0.761,0 -1.457,0.15 -2.082,0.45 a 4.827,4.827 0 0 0 -1.609,1.223 5.497,5.497 0 0 0 -1.027,1.792 6.341,6.341 0 0 0 -0.364,2.145 z m 37.278,8.422 c -0.317,0.316 -0.664,0.656 -1.047,1.02 -0.38,0.363 -0.797,0.703 -1.254,1.019 -0.457,0.316 -0.95,0.578 -1.48,0.785 a 4.693,4.693 0 0 1 -1.704,0.305 c -1.593,0 -3.062,-0.297 -4.406,-0.895 a 10.561,10.561 0 0 1 -3.46,-2.453 c -0.97,-1.039 -1.727,-2.262 -2.27,-3.668 -0.547,-1.406 -0.817,-2.918 -0.817,-4.535 0,-1.629 0.27,-3.145 0.817,-4.547 a 11.299,11.299 0 0 1 2.27,-3.656 10.427,10.427 0 0 1 3.46,-2.445 c 1.344,-0.59 2.813,-0.887 4.406,-0.887 0.645,0 1.235,0.094 1.766,0.281 a 6.52,6.52 0 0 1 1.46,0.719 c 0.438,0.297 0.845,0.625 1.212,0.996 0.37,0.367 0.719,0.73 1.047,1.082 v -8.04 c 0,-0.374 0.117,-0.69 0.343,-0.948 0.23,-0.258 0.57,-0.387 1.028,-0.387 h 3.957 c 0.152,0 0.312,0.035 0.484,0.098 0.168,0.066 0.324,0.156 0.465,0.273 0.14,0.117 0.258,0.258 0.344,0.422 0.09,0.164 0.133,0.344 0.133,0.543 v 26.289 c 0,0.902 -0.477,1.355 -1.426,1.355 h -3.446 c -0.234,0 -0.417,-0.03 -0.546,-0.09 a 0.855,0.855 0 0 1 -0.325,-0.253 1.764,1.764 0 0 1 -0.238,-0.422 c -0.07,-0.168 -0.156,-0.367 -0.262,-0.59 z m -10.11,-8.422 c 0,0.773 0.121,1.496 0.36,2.172 a 5.214,5.214 0 0 0 1.03,1.75 c 0.446,0.492 0.981,0.883 1.606,1.168 0.63,0.289 1.325,0.43 2.086,0.43 a 5.55,5.55 0 0 0 2.118,-0.403 5.36,5.36 0 0 0 1.734,-1.117 5.616,5.616 0 0 0 1.187,-1.68 5.541,5.541 0 0 0 0.5,-2.074 v -0.246 a 5.656,5.656 0 0 0 -1.594,-3.938 5.468,5.468 0 0 0 -1.757,-1.222 5.295,5.295 0 0 0 -2.188,-0.45 c -0.761,0 -1.457,0.15 -2.086,0.45 a 4.851,4.851 0 0 0 -1.605,1.223 5.577,5.577 0 0 0 -1.031,1.792 6.436,6.436 0 0 0 -0.36,2.145 z m 21.54,-16.477 c 0,-0.375 0.093,-0.691 0.28,-0.949 0.188,-0.258 0.512,-0.386 0.97,-0.386 h 4.308 c 0.117,0 0.238,0.03 0.367,0.097 0.13,0.063 0.25,0.152 0.36,0.27 0.113,0.117 0.207,0.258 0.28,0.422 0.079,0.164 0.118,0.347 0.118,0.546 v 26.27 c 0,0.445 -0.129,0.785 -0.379,1.012 -0.254,0.23 -0.578,0.343 -0.976,0.343 h -4.079 c -0.457,0 -0.78,-0.113 -0.968,-0.343 -0.188,-0.227 -0.282,-0.567 -0.282,-1.012 z m 29.609,24.954 a 11.67,11.67 0 0 1 -3.48,2.222 c -1.29,0.535 -2.657,0.801 -4.098,0.801 -1.606,0 -3.121,-0.293 -4.551,-0.879 a 11.8,11.8 0 0 1 -3.766,-2.437 11.656,11.656 0 0 1 -2.566,-3.664 c -0.633,-1.407 -0.95,-2.938 -0.95,-4.59 0,-1.032 0.126,-2.032 0.38,-3 0.25,-0.965 0.609,-1.871 1.07,-2.715 a 11.743,11.743 0 0 1 1.687,-2.332 10.792,10.792 0 0 1 4.899,-2.996 c 0.96,-0.282 1.976,-0.422 3.043,-0.422 0.972,0 1.914,0.129 2.832,0.387 a 11.04,11.04 0 0 1 4.781,2.777 11.35,11.35 0 0 1 1.723,2.156 c 0.48,0.777 0.851,1.61 1.117,2.496 0.262,0.883 0.394,1.797 0.394,2.735 0,0.609 -0.007,1.105 -0.027,1.492 -0.016,0.387 -0.105,0.695 -0.27,0.926 -0.164,0.226 -0.437,0.386 -0.82,0.472 -0.379,0.09 -0.941,0.133 -1.68,0.133 h -12.66 c 0.118,0.75 0.356,1.379 0.715,1.883 0.356,0.504 0.77,0.906 1.238,1.203 0.47,0.3 0.97,0.512 1.497,0.64 a 6.294,6.294 0 0 0 1.492,0.196 c 0.422,0 0.855,-0.043 1.3,-0.133 a 8.748,8.748 0 0 0 1.293,-0.351 7.331,7.331 0 0 0 1.145,-0.508 c 0.344,-0.196 0.625,-0.399 0.836,-0.61 0.187,-0.152 0.348,-0.265 0.48,-0.34 a 0.86,0.86 0 0 1 0.434,-0.117 c 0.152,0 0.309,0.055 0.465,0.16 0.16,0.106 0.336,0.258 0.535,0.458 l 1.863,2.109 c 0.13,0.152 0.211,0.289 0.246,0.414 0.036,0.121 0.055,0.25 0.055,0.379 a 0.977,0.977 0 0 1 -0.195,0.605 c -0.13,0.168 -0.281,0.32 -0.457,0.45 z m -8.457,-14.649 c -0.457,0 -0.899,0.09 -1.328,0.274 -0.426,0.18 -0.829,0.421 -1.204,0.726 a 6.37,6.37 0 0 0 -1.011,1.04 6.486,6.486 0 0 0 -0.73,1.179 h 8.988 a 10.599,10.599 0 0 0 -0.801,-1.266 5.564,5.564 0 0 0 -0.985,-1.023 4.295,4.295 0 0 0 -1.265,-0.684 c -0.477,-0.164 -1.031,-0.246 -1.664,-0.246 z m 0,0"
       id="path156" />
  </g>
</svg>
